<svg width="152" height="33" viewBox="0 0 152 33" fill="none" xmlns="http://www.w3.org/2000/svg">
<path d="M25.0798 21V11.2H31.1278V12.572H26.5918V15.4H30.7638V16.772H26.5918V21H25.0798ZM33.9993 21V11.2H38.1153C38.722 11.2 39.254 11.3073 39.7113 11.522C40.178 11.7273 40.5373 12.026 40.7893 12.418C41.0507 12.81 41.1813 13.2767 41.1813 13.818V13.972C41.1813 14.588 41.032 15.0827 40.7333 15.456C40.444 15.82 40.0893 16.0767 39.6693 16.226V16.45C40.024 16.4687 40.3087 16.59 40.5233 16.814C40.738 17.0287 40.8453 17.3413 40.8453 17.752V21H39.3193V17.962C39.3193 17.71 39.254 17.5093 39.1233 17.36C38.9927 17.2107 38.7827 17.136 38.4933 17.136H35.5113V21H33.9993ZM35.5113 15.764H37.9473C38.4887 15.764 38.9087 15.6287 39.2073 15.358C39.506 15.078 39.6553 14.7 39.6553 14.224V14.112C39.6553 13.636 39.506 13.2627 39.2073 12.992C38.918 12.712 38.498 12.572 37.9473 12.572H35.5113V15.764ZM44.245 21V11.2H50.419V12.572H45.757V15.386H50.027V16.758H45.757V19.628H50.489V21H44.245ZM53.4654 21V11.2H59.6394V12.572H54.9774V15.386H59.2474V16.758H54.9774V19.628H59.7094V21H53.4654ZM69.5955 21V12.572H66.5855V11.2H74.1175V12.572H71.1075V21H69.5955ZM80.1599 21.196C78.9559 21.196 77.9992 20.86 77.2899 20.188C76.5805 19.5067 76.2259 18.5267 76.2259 17.248V14.952C76.2259 13.6733 76.5805 12.698 77.2899 12.026C77.9992 11.3447 78.9559 11.004 80.1599 11.004C81.3639 11.004 82.3205 11.3447 83.0299 12.026C83.7485 12.698 84.1079 13.6733 84.1079 14.952V17.248C84.1079 18.5267 83.7485 19.5067 83.0299 20.188C82.3205 20.86 81.3639 21.196 80.1599 21.196ZM80.1599 19.838C80.9345 19.838 81.5319 19.614 81.9519 19.166C82.3719 18.7087 82.5819 18.088 82.5819 17.304V14.896C82.5819 14.112 82.3719 13.496 81.9519 13.048C81.5319 12.5907 80.9345 12.362 80.1599 12.362C79.4039 12.362 78.8112 12.5907 78.3819 13.048C77.9525 13.496 77.7379 14.112 77.7379 14.896V17.304C77.7379 18.088 77.9525 18.7087 78.3819 19.166C78.8112 19.614 79.4039 19.838 80.1599 19.838ZM92.2661 21V11.2H96.1581C96.7555 11.2 97.2875 11.3213 97.7541 11.564C98.2301 11.7973 98.5988 12.1333 98.8601 12.572C99.1308 13.0013 99.2661 13.5193 99.2661 14.126V14.308C99.2661 14.9147 99.1261 15.4373 98.8461 15.876C98.5755 16.3147 98.2068 16.6507 97.7401 16.884C97.2735 17.1173 96.7461 17.234 96.1581 17.234H93.7781V21H92.2661ZM93.7781 15.862H96.0041C96.5361 15.862 96.9608 15.722 97.2781 15.442C97.5955 15.162 97.7541 14.7793 97.7541 14.294V14.154C97.7541 13.6593 97.5955 13.272 97.2781 12.992C96.9608 12.712 96.5361 12.572 96.0041 12.572H93.7781V15.862ZM102.102 21V11.2H103.614V19.628H108.332V21H102.102ZM110.389 21L113.189 11.2H115.849L118.635 21H117.081L116.437 18.69H112.601L111.957 21H110.389ZM112.979 17.29H116.059L114.631 12.138H114.407L112.979 17.29ZM122.858 21V17.444L119.456 11.2H121.164L123.516 15.638H123.726L126.078 11.2H127.786L124.384 17.444V21H122.858Z" fill="white"/>
<mask id="path-4-inside-1_163_22534" fill="white">
<path fill-rule="evenodd" clip-rule="evenodd" d="M0 8.25L8 0H144H150C151.105 0 152 0.895431 152 2V24.75L144 33H8H2C0.895431 33 0 32.1046 0 31V8.25Z"/>
</mask>
<g filter="url(#filter0_i_163_22534)">
<path fill-rule="evenodd" clip-rule="evenodd" d="M0 8.25L8 0H144H150C151.105 0 152 0.895431 152 2V24.75L144 33H8H2C0.895431 33 0 32.1046 0 31V8.25Z" fill="white" fill-opacity="0.1"/>
</g>
<path d="M8 0V-1H7.57675L7.2821 -0.696146L8 0ZM0 8.25L-0.7179 7.55385L-1 7.84477V8.25H0ZM152 24.75L152.718 25.4461L153 25.1552V24.75H152ZM144 33V34H144.423L144.718 33.6961L144 33ZM7.2821 -0.696146L-0.7179 7.55385L0.7179 8.94615L8.7179 0.696146L7.2821 -0.696146ZM8 1H144V-1H8V1ZM150 -1H144V1H150V-1ZM153 2C153 0.343145 151.657 -1 150 -1V1C150.552 1 151 1.44772 151 2H153ZM153 24.75V2H151V24.75H153ZM144.718 33.6961L152.718 25.4461L151.282 24.0539L143.282 32.3039L144.718 33.6961ZM144 32H8V34H144V32ZM2 34H8V32H2V34ZM-1 31C-1 32.6569 0.343145 34 2 34V32C1.44772 32 1 31.5523 1 31H-1ZM-1 8.25V31H1V8.25H-1Z" fill="#00CFC1" mask="url(#path-4-inside-1_163_22534)"/>
<path d="M8 33H1C0.447715 33 0 32.5523 0 32V25L8 33Z" fill="#00CFC1"/>
<path d="M144 0H151C151.552 0 152 0.447715 152 1V8L144 0Z" fill="#00CFC1"/>
<path d="M4 21L4 13" stroke="#00CFC1"/>
<path d="M148 21L148 13" stroke="#00CFC1"/>
<defs>
<filter id="filter0_i_163_22534" x="0" y="0" width="152" height="33" filterUnits="userSpaceOnUse" color-interpolation-filters="sRGB">
<feFlood flood-opacity="0" result="BackgroundImageFix"/>
<feBlend mode="normal" in="SourceGraphic" in2="BackgroundImageFix" result="shape"/>
<feColorMatrix in="SourceAlpha" type="matrix" values="0 0 0 0 0 0 0 0 0 0 0 0 0 0 0 0 0 0 127 0" result="hardAlpha"/>
<feOffset/>
<feGaussianBlur stdDeviation="12.5"/>
<feComposite in2="hardAlpha" operator="arithmetic" k2="-1" k3="1"/>
<feColorMatrix type="matrix" values="0 0 0 0 0 0 0 0 0 0.811765 0 0 0 0 0.756863 0 0 0 0.3 0"/>
<feBlend mode="normal" in2="shape" result="effect1_innerShadow_163_22534"/>
</filter>
</defs>
</svg>
