<svg width="1003" height="229" viewBox="0 0 1003 229" fill="none" xmlns="http://www.w3.org/2000/svg">
<path d="M986.839 154.164L979.483 141.722L974.149 153.306C970.847 160.482 966.65 167.212 961.685 173.302L958.892 176.726L960.915 180.663C962.679 184.095 964.101 187.258 965.162 190.077C962.328 189.008 959.16 187.57 955.724 185.795C951.82 183.784 947.623 181.361 943.251 178.602C923.53 166.152 900.632 147.224 878.771 125.301C875.202 121.726 871.665 118.083 868.221 114.424C871.682 110.739 875.218 107.088 878.763 103.53C900.624 81.6157 923.522 62.6878 943.234 50.2375C947.598 47.4782 951.795 45.0639 955.707 43.0449C959.16 41.2615 962.328 39.8314 965.146 38.763C964.076 41.5895 962.654 44.7526 960.899 48.1765L958.876 52.1134L961.668 55.5373C966.65 61.6531 970.847 68.3746 974.132 75.5251L979.391 86.966L985.912 76.2065C986.238 75.6681 986.564 75.1297 986.831 74.6671C994.062 62.4859 998.878 51.6844 1001.16 42.5402C1002.63 36.6262 1003.09 31.3853 1002.57 26.4977C1001.84 19.65 999.087 13.6604 994.614 9.1682C990.15 4.69281 984.181 1.93354 977.351 1.20167C972.486 0.680097 967.261 1.14278 961.367 2.61495C952.246 4.90312 941.47 9.73183 929.315 16.9833L927.819 17.8834C905.063 31.705 878.721 53.1566 853.658 78.2844C850.657 81.2876 847.689 84.3413 844.772 87.4034C837.306 78.0404 830.878 69.0728 825.586 60.6604C822.827 56.2776 820.419 52.0714 818.413 48.1596C816.649 44.7274 815.22 41.5643 814.158 38.7462C816.984 39.8145 820.152 41.2446 823.596 43.0281L827.484 45.0386L830.869 42.2625C836.964 37.274 843.677 33.0678 850.824 29.7701L862.361 24.4451L851.309 17.7825C850.849 17.5049 850.398 17.2357 849.963 16.9749C837.833 9.74024 827.057 4.91153 817.937 2.62336C812.051 1.15119 806.826 0.68851 801.952 1.21008C795.131 1.94196 789.17 4.70122 784.698 9.17661C780.225 13.6604 777.466 19.65 776.739 26.4977C776.212 31.3685 776.672 36.6178 778.152 42.5486C780.434 51.7012 785.258 62.5112 792.472 74.6671L793.384 76.1981C800.632 88.1942 809.861 101.032 820.846 114.424C809.861 127.817 800.64 140.654 793.375 152.667C793.066 153.18 792.757 153.701 792.472 154.181C785.249 166.337 780.434 177.147 778.152 186.299C776.681 192.213 776.212 197.454 776.739 202.342C777.466 209.19 780.217 215.179 784.689 219.671C789.153 224.147 795.122 226.906 801.969 227.646C803.265 227.781 804.577 227.848 805.865 227.848H805.89C809.635 227.848 813.581 227.318 817.928 226.225C827.057 223.937 837.833 219.108 849.988 211.856C850.465 211.57 850.941 211.284 851.426 210.99L862.461 204.445L850.824 199.069C843.677 195.763 836.964 191.566 830.869 186.569L827.484 183.793L823.596 185.795C820.152 187.57 816.984 189.008 814.158 190.077C815.228 187.242 816.658 184.087 818.413 180.663C820.419 176.751 822.835 172.545 825.586 168.162C830.869 159.75 837.306 150.774 844.772 141.419C847.698 144.49 850.665 147.544 853.658 150.538C878.73 175.666 905.063 197.126 927.794 210.931C928.312 211.251 928.839 211.562 929.34 211.856C941.47 219.091 952.246 223.92 961.367 226.208C967.261 227.68 972.486 228.143 977.351 227.621C984.181 226.889 990.15 224.13 994.606 219.655C999.078 215.179 1001.83 209.181 1002.57 202.3C1002.71 201.004 1002.77 199.675 1002.77 198.388C1002.78 194.636 1002.26 190.666 1001.15 186.274C998.869 177.122 994.054 166.312 986.831 154.147L986.839 154.164Z" fill="white"/>
<path d="M64.3068 1.35307H0.938965V228H48.933V136.767H64.3068C99.7527 136.767 117.007 118.142 117.007 86.2594V51.5414C117.007 19.9781 99.7527 1.35307 64.3068 1.35307ZM58.9732 43.0197C65.2431 43.0197 68.6958 47.7558 68.6958 55.327V82.4738C68.6958 90.3646 65.2431 94.7811 58.9732 94.7811H48.933V43.0197H58.9732Z" fill="white"/>
<path d="M132.122 1.35307V228H220.896V184.752H179.489V1.35307H132.122V1.35307Z" fill="white"/>
<path d="M259.607 1.35307L229.495 228.008H274.981L279.37 182.548H302.895L307.601 228.008H354.659L324.237 1.35307H259.616H259.607ZM286.902 105.843L290.664 63.2262H291.291L295.371 105.843L299.133 143.724H283.132L286.894 105.843H286.902Z" fill="white"/>
<path d="M410.564 105.835L440.994 228H482.091V1.35307H438.486V61.0138L439.113 109.309H438.486L413.699 1.35307H366.959V228H410.564V152.238L409.937 105.835H410.564V105.835Z" fill="white"/>
<path d="M499.659 1.35307V228H590.005V184.752H547.026V132.662H584.671V89.414H547.026V44.6012H590.005V1.35307H499.659Z" fill="white"/>
<path d="M713.932 44.6012V1.35307H602.88V44.6012H634.246V228.008H682.558V44.6012H713.932Z" fill="white"/>
<path d="M710.214 136.58H763.953L777.304 123.222V91.8318L723.565 91.8317L710.214 105.189V136.58Z" fill="white"/>
</svg>
