<svg width="33" height="19" viewBox="0 0 33 19" fill="none" xmlns="http://www.w3.org/2000/svg">
<path d="M6.322 14.5H9.136C10.718 14.5 11.488 13.772 11.488 12.358V10.86C11.488 10.202 11.138 9.628 10.494 9.362C11.11 9.138 11.418 8.55 11.418 7.878V6.59C11.418 5.176 10.648 4.448 9.066 4.448H6.322V14.5ZM9.29 6.8V7.892C9.29 8.242 9.136 8.438 8.856 8.438H8.45V6.254H8.856C9.136 6.254 9.29 6.45 9.29 6.8ZM9.346 10.804V12.148C9.346 12.498 9.192 12.694 8.898 12.694H8.45V10.216H8.842C9.192 10.216 9.346 10.426 9.346 10.804ZM12.0095 4.448V14.5H16.0415V12.582H14.1235V10.272H15.8035V8.354H14.1235V6.366H16.0415V4.448H12.0095ZM21.3909 6.366V4.448H16.4349V6.366H17.8349V14.5H19.9909V6.366H21.3909ZM22.1793 4.448L20.8353 14.5H22.8653L23.0613 12.484H24.1113L24.3213 14.5H26.4213L25.0633 4.448H22.1793ZM23.3973 9.082L23.5653 7.192H23.5933L23.7753 9.082L23.9433 10.762H23.2293L23.3973 9.082Z" fill="white"/>
<mask id="path-2-inside-1_732_12124" fill="white">
<path fill-rule="evenodd" clip-rule="evenodd" d="M0 4.35417L4.77419 0H28.2258V3.24249e-05H32.9997V14.6459L28.2258 18.9998V19H28.2256L28.2256 19V19H4.77419H0V4.35417Z"/>
</mask>
<path fill-rule="evenodd" clip-rule="evenodd" d="M0 4.35417L4.77419 0H28.2258V3.24249e-05H32.9997V14.6459L28.2258 18.9998V19H28.2256L28.2256 19V19H4.77419H0V4.35417Z" fill="url(#paint0_radial_732_12124)" fill-opacity="0.2"/>
<path d="M4.77419 0V-0.596774H4.54293L4.37205 -0.440933L4.77419 0ZM0 4.35417L-0.402141 3.91323L-0.596774 4.09074V4.35417H0ZM28.2258 0H28.8226V-0.596774H28.2258V0ZM28.2258 3.24249e-05H27.629V0.596807H28.2258V3.24249e-05ZM32.9997 3.24249e-05H33.5965V-0.596742H32.9997V3.24249e-05ZM32.9997 14.6459L33.4019 15.0868L33.5965 14.9093V14.6459H32.9997ZM28.2258 18.9998L27.8237 18.5589L27.629 18.7364V18.9998H28.2258ZM28.2258 19V19.5968H28.8226V19H28.2258ZM28.2256 19V18.4032H27.9976L27.8277 18.5553L28.2256 19ZM28.2256 19H27.6288V20.3348L28.6235 19.4448L28.2256 19ZM28.2256 19H28.8223V18.4032H28.2256V19ZM0 19H-0.596774V19.5968H0V19ZM4.37205 -0.440933L-0.402141 3.91323L0.402141 4.7951L5.17633 0.440933L4.37205 -0.440933ZM4.77419 0.596774H28.2258V-0.596774H4.77419V0.596774ZM27.629 0V3.24249e-05H28.8226V0H27.629ZM32.9997 -0.596742H28.2258V0.596807H32.9997V-0.596742ZM33.5965 14.6459V3.24249e-05H32.403V14.6459H33.5965ZM28.6279 19.4407L33.4019 15.0868L32.5976 14.2049L27.8237 18.5589L28.6279 19.4407ZM27.629 18.9998V19H28.8226V18.9998H27.629ZM28.2258 18.4032H28.2256V19.5968H28.2258V18.4032ZM28.6235 19.4448L28.6235 19.4447L27.8277 18.5553L27.8276 18.5553L28.6235 19.4448ZM27.6288 19V19H28.8223V19H27.6288ZM28.2256 18.4032H4.77419V19.5968H28.2256V18.4032ZM0 19.5968H4.77419V18.4032H0V19.5968ZM-0.596774 4.35417V19H0.596774V4.35417H-0.596774Z" fill="url(#paint1_radial_732_12124)" mask="url(#path-2-inside-1_732_12124)"/>
<defs>
<radialGradient id="paint0_radial_732_12124" cx="0" cy="0" r="1" gradientUnits="userSpaceOnUse" gradientTransform="translate(16.4999 9.50002) scale(16.4999 11.5076)">
<stop offset="0.136747" stop-color="#00CFC1" stop-opacity="0"/>
<stop offset="1" stop-color="#00CFC1"/>
</radialGradient>
<radialGradient id="paint1_radial_732_12124" cx="0" cy="0" r="1" gradientUnits="userSpaceOnUse" gradientTransform="translate(-21.6561 -12.0579) rotate(29.9317) scale(65.8143 35.6453)">
<stop stop-color="#F4D623"/>
<stop offset="0.947338" stop-color="#00CFC1"/>
</radialGradient>
</defs>
</svg>
