<svg width="82" height="29" viewBox="0 0 82 29" fill="none" xmlns="http://www.w3.org/2000/svg">
<g clip-path="url(#clip0_8_1368)">
<path d="M22.2696 15.5171C22.2556 13.1103 23.3373 11.2964 25.5216 9.95887C24.2999 8.19436 22.4517 7.22388 20.0153 7.03684C17.7084 6.85334 15.1845 8.39198 14.2604 8.39198C13.2838 8.39198 11.0504 7.10037 9.29315 7.10037C5.66659 7.15683 1.8125 10.0153 1.8125 15.8311C1.8125 17.5498 2.12405 19.3249 2.74714 21.1529C3.58027 23.5597 6.58373 29.4566 9.71671 29.3614C11.355 29.3225 12.5136 28.1897 14.6455 28.1897C16.7143 28.1897 17.7854 29.3614 19.6127 29.3614C22.7737 29.3155 25.4901 23.9549 26.2813 21.5411C22.0421 19.526 22.2696 15.6406 22.2696 15.5171V15.5171ZM18.5906 4.75358C20.3653 2.62911 20.2043 0.695215 20.1518 0C18.5836 0.0917542 16.7703 1.07635 15.7376 2.2868C14.6 3.58547 13.9314 5.19117 14.0749 7.00155C15.7691 7.13213 17.3164 6.2534 18.5906 4.75358V4.75358Z" fill="white"/>
</g>
<path d="M68.5398 13.9158L73.0732 9.56319L58.4306 1.66169C57.4602 1.15828 56.551 1.08763 55.7538 1.63814L68.5398 13.9158ZM73.8458 19.0117L78.5586 16.4667C79.4784 15.9721 79.9828 15.2715 79.9828 14.4943C79.9828 13.7185 79.4784 13.0164 78.5601 12.5218L74.2935 10.2212L69.4903 14.8314L73.8458 19.0117V19.0117ZM54.9658 2.70826C54.8677 2.99823 54.8125 3.32207 54.8125 3.67681V25.322C54.8125 25.8829 54.9413 26.3657 55.1743 26.7498L67.5878 14.8299L54.9658 2.70826ZM68.5398 15.7425L56.1953 27.5962C56.4314 27.6831 56.6859 27.7287 56.9542 27.7287C57.4326 27.7287 57.9308 27.5933 58.4383 27.3224L72.627 19.6726L68.5398 15.7425V15.7425Z" fill="white"/>
<defs>
<clipPath id="clip0_8_1368">
<rect width="29" height="29" fill="white"/>
</clipPath>
</defs>
</svg>
